<svg width="80" height="80" viewBox="0 0 80 80" fill="none" xmlns="http://www.w3.org/2000/svg">
<path d="M28.8885 73.3333C35.0218 73.3333 39.9996 68.3555 39.9996 62.2222V51.1111H28.8885C22.7551 51.1111 17.7773 56.0889 17.7773 62.2222C17.7773 68.3555 22.7551 73.3333 28.8885 73.3333Z" fill="#0ACF83"/>
<path d="M17.7773 40C17.7773 33.8667 22.7551 28.8889 28.8885 28.8889H39.9996V51.1111H28.8885C22.7551 51.1111 17.7773 46.1334 17.7773 40Z" fill="#A259FF"/>
<path d="M17.7773 17.7777C17.7773 11.6444 22.7551 6.66663 28.8885 6.66663H39.9996V28.8888H28.8885C22.7551 28.8888 17.7773 23.9111 17.7773 17.7777Z" fill="#F24E1E"/>
<path d="M40 6.66663H51.1111C57.2444 6.66663 62.2222 11.6444 62.2222 17.7777C62.2222 23.9111 57.2444 28.8888 51.1111 28.8888H40V6.66663Z" fill="#FF7262"/>
<path d="M62.2222 40C62.2222 46.1334 57.2444 51.1111 51.1111 51.1111C44.9778 51.1111 40 46.1334 40 40C40 33.8667 44.9778 28.8889 51.1111 28.8889C57.2444 28.8889 62.2222 33.8667 62.2222 40Z" fill="#1ABCFE"/>
</svg>
