<svg width="80" height="80" viewBox="0 0 80 80" fill="none" xmlns="http://www.w3.org/2000/svg">
<path fill-rule="evenodd" clip-rule="evenodd" d="M49.4566 79.9933C77.2633 79.1889 80 73.3278 80 40.0534C80 3.33778 76.6667 0 39.9999 0C3.33333 0 0 3.33778 0 40.0534C0 73.4146 2.75333 79.219 30.7599 80C31.0033 79.6963 31.0933 79.3157 31.0933 78.9286C31.0933 78.0941 31.0599 69.5294 31.0433 66.5821C20.92 68.715 18.7833 61.8458 18.7833 61.8458C17.1267 57.767 14.74 56.6789 14.74 56.6789C11.4367 54.4893 14.99 54.5327 14.99 54.5327C18.6433 54.7831 20.5667 58.1743 20.5667 58.1743C23.8134 63.5714 29.0867 62.0127 31.1599 61.1082C31.4899 58.8285 32.4299 57.2697 33.4699 56.3885C25.3867 55.4973 16.89 52.4666 16.89 38.9319C16.89 35.0768 18.31 31.9259 20.6367 29.4559C20.26 28.5614 19.0133 24.9699 20.9934 20.1101C20.9934 20.1101 24.05 19.1589 31.0033 23.7283C33.9066 22.9439 37.0199 22.5534 40.1166 22.54C43.2066 22.5534 46.32 22.9439 49.23 23.7283C56.18 19.1589 59.23 20.1101 59.23 20.1101C61.2166 24.9699 59.9666 28.5614 59.59 29.4559C61.9233 31.9259 63.3333 35.0768 63.3333 38.9319C63.3333 52.5 54.8233 55.4873 46.7133 56.3585C48.02 57.45 49.1833 59.6062 49.1833 62.9005C49.1833 66.0581 49.1633 71.6422 49.15 75.3438C49.1433 77.1762 49.14 78.5447 49.14 78.9286C49.14 79.2924 49.2366 79.6762 49.4566 79.9933Z" fill="#0E1A28"/>
</svg>
