<svg width="80" height="80" viewBox="0 0 80 80" fill="none" xmlns="http://www.w3.org/2000/svg">
<path fill-rule="evenodd" clip-rule="evenodd" d="M80 10C80 4.48078 75.5192 0 70 0H10C4.48078 0 0 4.48078 0 10V70C0 75.5192 4.48078 80 10 80H70C75.5192 80 80 75.5192 80 70V10Z" fill="#0E1A28"/>
<path d="M22.94 27.9165H9.54004V68.2231H22.94V27.9165Z" fill="#A3E221"/>
<path d="M16.33 8.4812C11.7455 8.4812 8.75 11.4953 8.75 15.4457C8.75 19.3132 11.6544 22.4104 16.1527 22.4104H16.2392C20.9116 22.4104 23.8198 19.3132 23.8198 15.4457C23.7331 11.4953 20.9119 8.4812 16.33 8.4812Z" fill="#A3E221"/>
<path d="M55.8254 26.9688C48.7176 26.9688 45.5339 30.8777 43.7511 33.6233V27.9166H30.3545C30.5321 31.6973 30.3545 68.223 30.3545 68.223H43.7509V45.713C43.7509 44.5081 43.8375 43.3036 44.1926 42.4425C45.1595 40.0362 47.3653 37.5438 51.0665 37.5438C55.9121 37.5438 57.8534 41.2413 57.8534 46.6573V68.223H71.2504V45.1089C71.2504 32.7281 64.6403 26.9688 55.8254 26.9688Z" fill="#A3E221"/>
</svg>
