<svg width="79" height="50" viewBox="0 0 79 50" fill="none" xmlns="http://www.w3.org/2000/svg">
<path d="M27.4453 32.1415H32.0976V36.923H27.4453V32.1415Z" fill="#0E1A28"/>
<path d="M47.1798 14.3076L42.5921 36.923H36.5182L31.9305 14.3076H36.5828L38.3598 24.7753L39.4582 31.5599H39.6521L40.7505 24.7753L42.5275 14.3076H47.1798Z" fill="#0E1A28"/>
<path d="M48.9057 36.923V14.3076H58.1134C59.1688 14.6953 60.1057 15.3738 60.9242 16.343C61.7426 17.3122 62.1518 18.4861 62.1518 19.8645C62.1518 22.2984 61.3549 23.9999 59.7611 24.9692V25.0984C61.7426 26.1968 62.7334 27.9199 62.7334 30.2676C62.7334 32.9599 61.3657 35.1784 58.6303 36.923H48.9057ZM53.2995 23.6445H56.498C57.4457 23.063 57.9195 22.1799 57.9195 20.9953C57.9195 19.8107 57.478 18.8738 56.5949 18.1845H53.2995V23.6445ZM53.2995 33.1753H56.6272C57.0149 32.8953 57.3595 32.4538 57.6611 31.8507C57.9842 31.2476 58.1457 30.6445 58.1457 30.0415C58.1457 29.4384 58.0165 28.8892 57.758 28.3938C57.4995 27.8984 57.1765 27.5322 56.7888 27.2953H53.2995V33.1753Z" fill="#0E1A28"/>
<path d="M72.3926 23.8061H69.9696C69.6465 24.1938 69.3772 24.7322 69.1619 25.4215C68.968 26.1107 68.8711 26.7784 68.8711 27.4245H73.4911C73.5342 26.7784 73.448 26.1107 73.2326 25.4215C73.0172 24.7107 72.7372 24.1722 72.3926 23.8061ZM76.7865 33.5307V36.923H68.5803C67.0726 35.9107 66.0065 34.6615 65.3819 33.1753C64.7788 31.6676 64.4772 30.1492 64.4772 28.6199C64.4772 25.0876 65.8126 22.3522 68.4834 20.4138H73.7172C75.1603 21.4692 76.1403 22.5892 76.6572 23.7738C77.1742 24.9584 77.4326 26.1538 77.4326 27.3599C77.4326 28.5661 77.3357 29.5999 77.1419 30.4615H69.0972C69.1619 30.9569 69.3449 31.5276 69.6465 32.1738C69.9696 32.7984 70.3142 33.2507 70.6803 33.5307H76.7865Z" fill="#0E1A28"/>
<path d="M15.1308 41.7143H78.8462V50H9.56384C6.42347 47.0476 4.04441 43.3095 2.42665 38.7857C0.808882 34.2619 0 29.6191 0 24.8571C0 20.0476 0.904044 15.4286 2.71213 11C4.52022 6.57143 7.20856 2.90476 10.7772 0H27.6923V8.57143H15.1308C13.8462 10.0476 12.728 12.4286 11.7764 15.7143C10.8723 19 10.4203 22.1429 10.4203 25.1429C10.4203 28.1429 10.8723 31.2857 11.7764 34.5714C12.728 37.8571 13.8462 40.2381 15.1308 41.7143Z" fill="#0E1A28"/>
</svg>
