<svg width="237" height="150" viewBox="0 0 237 150" fill="none" xmlns="http://www.w3.org/2000/svg">
<path d="M82.3369 96.4245H96.2938V110.769H82.3369V96.4245Z" fill="#F5FEE3"/>
<path d="M141.54 42.923L127.777 110.769H109.556L95.7926 42.923H109.749L115.08 74.3261L118.376 94.6799H118.957L122.253 74.3261L127.583 42.923H141.54Z" fill="#F5FEE3"/>
<path d="M146.718 110.769V42.923H174.341C177.507 44.0861 180.318 46.1214 182.773 49.0291C185.229 51.9368 186.457 55.4584 186.457 59.5937C186.457 66.8953 184.066 71.9999 179.284 74.9076V75.2953C185.229 78.5907 188.201 83.7599 188.201 90.803C188.201 98.8799 184.098 105.535 175.892 110.769H146.718ZM159.9 70.9337H169.495C172.338 69.1891 173.76 66.5399 173.76 62.9861C173.76 59.4322 172.435 56.6214 169.786 54.5537H159.9V70.9337ZM159.9 99.5261H169.883C171.046 98.6861 172.08 97.3614 172.984 95.5522C173.953 93.743 174.438 91.9338 174.438 90.1245C174.438 88.3153 174.05 86.6676 173.275 85.1814C172.5 83.6953 171.53 82.5968 170.367 81.8861H159.9V99.5261Z" fill="#F5FEE3"/>
<path d="M217.179 71.4184H209.91C208.94 72.5814 208.133 74.1968 207.487 76.2645C206.905 78.3322 206.614 80.3353 206.614 82.2738H220.474C220.603 80.3353 220.345 78.3322 219.699 76.2645C219.053 74.1322 218.213 72.5168 217.179 71.4184ZM230.36 100.592V110.769H205.742C201.219 107.732 198.02 103.985 196.147 99.5261C194.337 95.003 193.433 90.4476 193.433 85.8599C193.433 75.263 197.439 67.0568 205.451 61.2414H221.153C225.482 64.4076 228.422 67.7676 229.973 71.3214C231.523 74.8753 232.299 78.4614 232.299 82.0799C232.299 85.6984 232.008 88.7999 231.427 91.3845H207.293C207.487 92.8707 208.036 94.583 208.94 96.5214C209.91 98.3953 210.943 99.7522 212.042 100.592H230.36Z" fill="#F5FEE3"/>
<path d="M45.3925 125.143H236.538V150H28.6915C19.2704 141.143 12.1332 129.929 7.27994 116.357C2.42665 102.786 0 88.8572 0 74.5714C0 60.1429 2.71213 46.2857 8.1364 33C13.5607 19.7143 21.6257 8.71428 32.3315 0H83.0769V25.7143H45.3925C41.5385 30.1429 38.184 37.2857 35.3291 47.1429C32.617 57 31.2609 66.4286 31.2609 75.4286C31.2609 84.4286 32.617 93.8571 35.3291 103.714C38.184 113.571 41.5385 120.714 45.3925 125.143Z" fill="#F5FEE3"/>
</svg>
