<svg width="300" height="44" viewBox="0 0 300 44" fill="none" xmlns="http://www.w3.org/2000/svg">
<path d="M0 21C0 20.4477 0.447715 20 1 20H239C239.552 20 240 20.4477 240 21V23C240 23.5523 239.552 24 239 24H0.999999C0.447714 24 0 23.5523 0 23V21Z" fill="#A3E221"/>
<rect x="284" y="19" width="16" height="5" rx="1" fill="#A3E221"/>
<path d="M273.627 1.5L285.274 22L273.627 42.5H250.373L238.725 22L250.373 1.5H273.627Z" stroke="#A3E221" stroke-width="3"/>
<path d="M270.708 6.5L279.426 22L270.708 37.5H253.292L244.573 22L253.292 6.5H270.708Z" fill="#A3E221" stroke="#A3E221"/>
</svg>
